<svg xmlns="http://www.w3.org/2000/svg" width="67" height="65" viewBox="0 0 67 65" fill="none"><path d="M33.5001 0.5C15.3729 0.5 0.690674 15.1822 0.690674 33.3094C0.690674 47.8276 10.0824 60.0901 23.1241 64.4373C24.7646 64.7244 25.3797 63.7401 25.3797 62.8789C25.3797 62.0997 25.3387 59.5159 25.3387 56.7681C17.0954 58.2856 14.9628 54.7585 14.3066 52.913C13.9375 51.9697 12.338 49.0579 10.9436 48.2787C9.79528 47.6635 8.15481 46.1461 10.9026 46.1051C13.4863 46.0641 15.3319 48.4837 15.947 49.468C18.8999 54.4305 23.6162 53.0361 25.5028 52.1748C25.7899 50.0422 26.6511 48.6068 27.5944 47.7866C20.2943 46.9663 12.6661 44.1365 12.6661 31.5869C12.6661 28.0189 13.9375 25.066 16.0291 22.7694C15.701 21.9491 14.5526 18.5862 16.3572 14.0749C16.3572 14.0749 19.105 13.2136 25.3797 17.4379C28.0045 16.6996 30.7933 16.3305 33.5821 16.3305C36.3709 16.3305 39.1597 16.6996 41.7845 17.4379C48.0593 13.1726 50.807 14.0749 50.807 14.0749C52.6116 18.5862 51.4632 21.9491 51.1351 22.7694C53.2267 25.066 54.4981 27.9779 54.4981 31.5869C54.4981 44.1775 46.8289 46.9663 39.5288 47.7866C40.7181 48.8118 41.7434 50.7804 41.7434 53.8563C41.7434 58.2445 41.7024 61.7716 41.7024 62.8789C41.7024 63.7401 42.3176 64.7654 43.9581 64.4373C50.4717 62.239 56.1318 58.0532 60.1414 52.4691C64.1511 46.885 66.3083 40.184 66.3095 33.3094C66.3095 15.1822 51.6273 0.5 33.5001 0.5Z" fill="#F0F0F0"/></svg>