<svg xmlns="http://www.w3.org/2000/svg" width="64" height="65" viewBox="0 0 64 65" fill="none"><path d="M0 5.084C0 2.552 2.104 0.5 4.7 0.5H59.3C61.896 0.5 64 2.552 64 5.084V59.916C64 62.448 61.896 64.5 59.3 64.5H4.7C2.104 64.5 0 62.448 0 59.916V5.084ZM19.772 54.076V25.176H10.168V54.076H19.772ZM14.972 21.228C18.32 21.228 20.404 19.012 20.404 16.236C20.344 13.4 18.324 11.244 15.036 11.244C11.748 11.244 9.6 13.404 9.6 16.236C9.6 19.012 11.684 21.228 14.908 21.228H14.972ZM34.604 54.076V37.936C34.604 37.072 34.668 36.208 34.924 35.592C35.616 33.868 37.196 32.08 39.852 32.08C43.328 32.08 44.716 34.728 44.716 38.616V54.076H54.32V37.5C54.32 28.62 49.584 24.492 43.264 24.492C38.168 24.492 35.884 27.292 34.604 29.264V29.364H34.54C34.5612 29.3306 34.5826 29.2973 34.604 29.264V25.176H25.004C25.124 27.888 25.004 54.076 25.004 54.076H34.604Z" fill="#F0F0F0"/></svg>